<svg width="53" height="53" viewBox="0 0 53 53" fill="none" xmlns="http://www.w3.org/2000/svg">
<path d="M4.83643 43.7873V26.6541C4.83643 25.5181 5.29206 24.4287 6.10309 23.6254C6.91412 22.8221 8.01411 22.3708 9.16108 22.3708H43.7583C44.9053 22.3708 46.0052 22.8221 46.8163 23.6254C47.6273 24.4287 48.0829 25.5181 48.0829 26.6541V43.7873" stroke="#352089" stroke-width="2" stroke-linecap="round" stroke-linejoin="round"/>
<path d="M9.16101 22.3708V13.8043C9.16101 12.6683 9.61664 11.5788 10.4277 10.7755C11.2387 9.97227 12.3387 9.521 13.4857 9.521H39.4336C40.5805 9.521 41.6805 9.97227 42.4916 10.7755C43.3026 11.5788 43.7582 12.6683 43.7582 13.8043V22.3708" stroke="#352089" stroke-width="2" stroke-linecap="round" stroke-linejoin="round"/>
<path d="M26.4597 9.521V22.3708" stroke="#352089" stroke-width="2" stroke-linecap="round" stroke-linejoin="round"/>
<path d="M4.83643 39.5039H48.0829" stroke="#352089" stroke-width="2" stroke-linecap="round" stroke-linejoin="round"/>
</svg>
