<svg width="62" height="56" viewBox="0 0 62 56" fill="none" xmlns="http://www.w3.org/2000/svg">
<path d="M46.5 50.1053H15.5V53.0526C15.5 53.8343 15.1734 54.584 14.592 55.1367C14.0107 55.6895 13.2222 56 12.4 56H9.3C8.47783 56 7.68933 55.6895 7.10797 55.1367C6.52661 54.584 6.2 53.8343 6.2 53.0526V50.1053H3.1V26.5263H0V14.7368H3.1V5.89474C3.1 4.33136 3.75321 2.83201 4.91594 1.72653C6.07866 0.621051 7.65566 0 9.3 0H52.7C54.3443 0 55.9213 0.621051 57.0841 1.72653C58.2468 2.83201 58.9 4.33136 58.9 5.89474V14.7368H62V26.5263H58.9V50.1053H55.8V53.0526C55.8 53.8343 55.4734 54.584 54.892 55.1367C54.3107 55.6895 53.5222 56 52.7 56H49.6C48.7778 56 47.9893 55.6895 47.408 55.1367C46.8266 54.584 46.5 53.8343 46.5 53.0526V50.1053ZM9.3 5.89474V32.4211H52.7V5.89474H9.3ZM9.3 38.3158V44.2105H21.7V38.3158H9.3ZM40.3 38.3158V44.2105H52.7V38.3158H40.3Z" fill="white"/>
</svg>
