<svg width="58" height="58" viewBox="0 0 58 58" fill="none" xmlns="http://www.w3.org/2000/svg">
<path d="M40.7219 13.4V14.0933C43.8434 14.9676 46.4445 16.6122 48.0716 18.7403C49.6988 20.8684 50.2487 23.345 49.6255 25.7382C49.0024 28.1313 47.2457 30.2893 44.6617 31.8357C42.0778 33.3821 38.8305 34.2188 35.4863 34.2V34.2H16.9238C13.6195 34.1401 10.446 33.2471 7.94475 31.6734C5.44346 30.0997 3.76923 27.9426 3.20764 25.5702C2.64604 23.1978 3.23187 20.757 4.86519 18.664C6.49851 16.5711 9.07816 14.9557 12.1641 14.0933V13.4C12.1641 10.6417 13.6685 7.99646 16.3463 6.04609C19.0241 4.09571 22.656 3 26.443 3C30.23 3 33.8619 4.09571 36.5397 6.04609C39.2175 7.99646 40.7219 10.6417 40.7219 13.4V13.4Z" stroke="white" stroke-width="5" stroke-linecap="round" stroke-linejoin="round"/>
<path d="M26.4414 34.1997V54.9997" stroke="white" stroke-width="5" stroke-linecap="round" stroke-linejoin="round"/>
<path d="M55 44.6001V55.0001" stroke="white" stroke-width="5" stroke-linecap="round" stroke-linejoin="round"/>
</svg>
