<svg width="53" height="53" viewBox="0 0 53 53" fill="none" xmlns="http://www.w3.org/2000/svg">
<path d="M18.5927 48.827C18.7948 49.0461 18.9023 49.3362 18.8918 49.6341C18.8812 49.9319 18.7536 50.2137 18.5365 50.418L16.0962 52.6999C15.8783 52.9023 15.5889 53.01 15.2917 52.9993C14.9944 52.9885 14.7136 52.8602 14.5109 52.6426L0.299231 37.3265C0.0972736 37.1072 -0.00999549 36.8171 0.000733911 36.5192C0.0114633 36.2213 0.139324 35.9397 0.356531 35.7356L2.80023 33.457C2.90806 33.3566 3.03461 33.2785 3.17266 33.227C3.3107 33.1756 3.45754 33.1518 3.60476 33.1572C3.75199 33.1625 3.89672 33.1968 4.03069 33.2581C4.16466 33.3193 4.28524 33.4064 4.38554 33.5143L18.5927 48.827ZM36.7266 20.0083C36.9286 20.2275 37.0359 20.5176 37.0251 20.8155C37.0144 21.1134 36.8865 21.395 36.6693 21.5992L21.3105 35.9468C21.0926 36.1492 20.8033 36.2569 20.506 36.2462C20.2088 36.2354 19.928 36.1071 19.7252 35.8895L16.0591 31.9335C15.8572 31.7143 15.7499 31.4242 15.7606 31.1263C15.7714 30.8284 15.8992 30.5467 16.1164 30.3426L31.4718 15.995C31.5796 15.8946 31.706 15.8165 31.844 15.7651C31.9819 15.7136 32.1287 15.6899 32.2758 15.6952C32.423 15.7005 32.5676 15.7348 32.7015 15.7961C32.8353 15.8574 32.9558 15.9444 33.056 16.0523L36.7266 20.0083ZM23.8183 43.943C24.2385 44.3958 24.2127 45.1115 23.761 45.5339L21.3173 47.8147C21.2095 47.9151 21.0829 47.9933 20.9449 48.0447C20.8068 48.0962 20.66 48.1199 20.5128 48.1146C20.3655 48.1093 20.2208 48.075 20.0868 48.0137C19.9529 47.9524 19.8323 47.8653 19.732 47.7574L5.52818 32.4413C5.32609 32.2222 5.21862 31.9322 5.22914 31.6343C5.23966 31.3364 5.36731 31.0547 5.58436 30.8504L8.02357 28.5708C8.24148 28.3683 8.53083 28.2606 8.82808 28.2714C9.12533 28.2821 9.40616 28.4104 9.60888 28.6281L23.8183 43.943ZM47.4834 20.5577C47.6852 20.7771 47.7923 21.0673 47.7814 21.3652C47.7704 21.6631 47.6423 21.9446 47.425 22.1486L44.9824 24.4294C44.7645 24.632 44.475 24.74 44.1776 24.7294C43.8801 24.7189 43.599 24.5908 43.396 24.3732L29.1899 9.06049C28.9876 8.84152 28.8799 8.55145 28.8904 8.25346C28.901 7.95548 29.0288 7.67372 29.2461 7.46956L31.6954 5.18316C31.8032 5.08281 31.9296 5.00469 32.0676 4.95325C32.2055 4.90182 32.3523 4.87808 32.4994 4.8834C32.6465 4.88872 32.7912 4.923 32.9251 4.98427C33.0589 5.04553 33.1794 5.13259 33.2796 5.24046L47.4834 20.5577ZM52.7011 15.6815C52.9029 15.9011 53.01 16.1913 52.9993 16.4893C52.9885 16.7873 52.8608 17.0691 52.6438 17.2736L50.2057 19.5532C50.0981 19.6536 49.9717 19.7319 49.8338 19.7834C49.6959 19.8349 49.5491 19.8588 49.402 19.8535C49.2549 19.8483 49.1102 19.8141 48.9763 19.753C48.8424 19.6918 48.7218 19.6048 48.6216 19.497L34.4178 4.17759C34.2159 3.95816 34.1086 3.66803 34.1191 3.37004C34.1296 3.07204 34.2571 2.79019 34.4739 2.58554L36.9143 0.301384C37.0218 0.200862 37.1481 0.122555 37.2859 0.0709567C37.4237 0.0193583 37.5704 -0.00451613 37.7175 0.000703253C37.8645 0.00592264 38.0092 0.0401331 38.143 0.101372C38.2768 0.16261 38.3972 0.249672 38.4973 0.357561L52.7011 15.6815Z" fill="white"/>
</svg>
