<svg width="57" height="47" viewBox="0 0 57 47" fill="none" xmlns="http://www.w3.org/2000/svg">
<path d="M18.1667 41.7739V27.9344H38.8334V41.7739H46.5834V4.86854H10.4167V41.7739H18.1667ZM23.3334 41.7739H33.6667V32.5476H23.3334V41.7739ZM51.75 41.7739H56.9167V46.3871H0.083374V41.7739H5.25004V2.56196C5.25004 1.95021 5.52221 1.36352 6.00668 0.930954C6.49115 0.498385 7.14823 0.255371 7.83337 0.255371H49.1667C49.8518 0.255371 50.5089 0.498385 50.9934 0.930954C51.4779 1.36352 51.75 1.95021 51.75 2.56196V41.7739ZM25.9167 14.0949V9.48171H31.0834V14.0949H36.25V18.708H31.0834V23.3212H25.9167V18.708H20.75V14.0949H25.9167Z" fill="white"/>
</svg>
